<svg width="33" height="33" viewBox="0 0 33 33" fill="none" xmlns="http://www.w3.org/2000/svg">
<path fill-rule="evenodd" clip-rule="evenodd" d="M8.27672 6.23935C8.26462 5.82971 8.37482 5.4257 8.59325 5.07894C8.81169 4.73219 9.12847 4.45838 9.50318 4.29241C9.87789 4.12645 10.2936 4.07589 10.6971 4.14714C11.1007 4.21839 11.4739 4.40824 11.7692 4.69248L22.7223 14.9846C22.9273 15.1775 23.0907 15.4105 23.2024 15.6689C23.3141 15.9273 23.3718 16.2056 23.3718 16.4871C23.3718 16.7687 23.3141 17.0472 23.2024 17.3056C23.0907 17.5641 22.9273 17.7968 22.7223 17.9897L11.7692 28.2823C11.5737 28.4772 11.3411 28.6309 11.0852 28.7342C10.8292 28.8376 10.5551 28.8885 10.2792 28.8841C10.0032 28.8796 9.73088 28.8197 9.47844 28.7081C9.226 28.5964 8.99853 28.4354 8.80951 28.2342C8.6205 28.0331 8.47377 27.796 8.37804 27.5371C8.2823 27.2782 8.2395 27.0026 8.25217 26.7269C8.26484 26.4512 8.33273 26.1808 8.4518 25.9318C8.57087 25.6828 8.73872 25.4602 8.94539 25.2772L18.299 16.4871L8.94539 7.6976C8.74219 7.51152 8.57834 7.2864 8.46349 7.03595C8.34865 6.7855 8.28514 6.51475 8.27672 6.23935Z" fill="#506BF2" fill-opacity="0.25"/>
</svg>