<svg width="33" height="33" viewBox="0 0 33 33" fill="none" xmlns="http://www.w3.org/2000/svg">
<path fill-rule="evenodd" clip-rule="evenodd" d="M24.7233 26.7606C24.7354 27.1703 24.6252 27.5743 24.4067 27.9211C24.1883 28.2678 23.8715 28.5416 23.4968 28.7076C23.1221 28.8736 22.7064 28.9241 22.3029 28.8529C21.8993 28.7816 21.5261 28.5918 21.2308 28.3075L10.2777 18.0154C10.0727 17.8225 9.90926 17.5895 9.79756 17.3311C9.68586 17.0727 9.62823 16.7944 9.62823 16.5129C9.62823 16.2313 9.68586 15.9528 9.79756 15.6944C9.90926 15.4359 10.0727 15.2032 10.2777 15.0103L21.2308 4.71768C21.4263 4.52278 21.6589 4.36912 21.9148 4.26575C22.1708 4.16238 22.4449 4.11146 22.7208 4.11595C22.9968 4.12044 23.2691 4.1803 23.5216 4.29194C23.774 4.40358 24.0015 4.56462 24.1905 4.76577C24.3795 4.96692 24.5262 5.20403 24.622 5.46292C24.7177 5.72181 24.7605 5.99738 24.7478 6.27312C24.7352 6.54885 24.6673 6.81918 24.5482 7.0682C24.4291 7.31723 24.2613 7.53984 24.0546 7.72281L14.701 16.5129L24.0546 25.3024C24.2578 25.4885 24.4217 25.7136 24.5365 25.964C24.6514 26.2145 24.7149 26.4853 24.7233 26.7606Z" fill="#506BF2" fill-opacity="0.25"/>
</svg>